<?xml version="1.0" encoding="UTF-8"?>
<svg width="76px" height="40px" viewBox="0 0 76 40" version="1.1" xmlns="http://www.w3.org/2000/svg" xmlns:xlink="http://www.w3.org/1999/xlink">
    <!-- Generator: Sketch 48.2 (47327) - http://www.bohemiancoding.com/sketch -->
    <title>Logo</title>
    <desc>Created with Sketch.</desc>
    <defs>
        <path d="M15.3248813,14.0314728 C18.0009863,14.0314728 19.0045256,14.86834 19.0251069,15.7282746 C19.0251069,16.2182043 18.7812991,16.5698609 18.3075144,16.5698609 C17.4434644,16.5698609 16.2727774,15.5005824 15.3248813,15.4820426 C14.3769853,15.4635028 12.4815199,15.8168984 12.4815199,18.2715998 C12.4815199,23.5717585 22.405409,23.2649072 22.405409,32.4425504 C22.405409,38.5795763 14.0702394,39.1094832 12.8716763,39.1094832 C11.6731132,39.1094832 2,38.3282982 2,31.3545142 C2,29.6250977 2.92001996,28.7045438 3.89568321,28.7045438 C8.77399949,28.7045438 6.32112109,35.7621235 13.5966725,35.7621235 C16.5236622,35.7621235 17.0252141,33.6976333 17.0252141,33.2235175 C17.2204557,28.1745279 6.71105972,24.6874724 7.12931,19.3874227 C7.12931,14.86834 13.2053526,14.0314728 15.3248813,14.0314728 Z M23.4647005,35.9516132 C23.4647005,34.0075471 22.8977362,12.2560828 23.3977449,2.32040042 C23.460377,1.66088561 23.686189,-1.92852044e-14 25.0536378,0 C29.0399191,7.27551405e-14 28.2014,16.2052681 28.2014,17.0988345 C28.2014,16.7235659 31.1300922,16.3482973 31.6478886,16.3482973 C40.7194055,16.3482973 41.4873458,32.0023581 41.4873458,35.5584746 C41.4873458,37.5420371 40.9157677,38.8286025 39.5050986,38.8286025 C36.9337648,38.8286025 36.8677509,33.214221 35.8662786,28.3701909 C34.8452122,23.4313862 32.9604948,19.2432264 31.0943076,19.2432264 C27.3977448,19.2432264 27.7371062,36.6307404 27.7371062,37.2561182 C27.7371062,37.8814961 27.9871106,39.9902179 25.5942117,39.9902179 C23.2013129,39.9902179 23.4647005,38.6295881 23.4647005,35.9516132 Z M51.8924841,14.8060624 C56.1692339,14.8060624 60.7883554,19.884929 60.7883554,25.2203636 C60.7883554,28.77732 56.3974445,30.7270293 47.6156229,31.0694916 C48.3759538,34.9118456 50.3433099,36.8330226 53.5176913,36.8330226 C57.8231763,36.8330226 57.8515822,34.3502775 59.7619087,34.3792421 C60.0763353,34.3840094 60.0755452,34.9498887 60.0755452,35.1781474 C60.0755452,35.406406 57.3096188,40 52.1774968,40 C47.0453747,40 42.312315,36.2338436 42.312315,28.2733231 C42.312315,20.3128025 46.8172754,14.8060624 51.8924841,14.8060624 Z M51.9460779,17.1172928 C48.8417678,17.1172928 47.2450729,21.5968689 47.4445484,28.3589201 C48.9555947,28.3589201 56.568519,27.8453381 56.568519,25.3915575 C56.568519,22.3101772 54.1165633,17.1172928 51.9460779,17.1172928 Z M74.8671381,1.96773237 C76.0701931,1.96773237 76.1326166,2.26876391 76.3104626,4.22643735 C76.4883087,6.1841108 78,36.4688181 78,38.0704586 C78,39.6720992 73.1290301,39.6687624 71.3244477,39.6687624 C69.5198652,39.6687624 62.0009672,40.57188 62.0009672,30.18828 C62.0009672,19.8046799 68.3292578,14.6180425 70.9827743,14.6180425 C71.9082385,14.6180425 72.4159896,14.7335211 72.5060276,14.9644784 C72.5060276,13.5724643 72.342905,7.95319054 72.8097382,4.05621851 C73.0203109,2.29842563 73.8320943,1.90063435 74.8671381,1.96773237 Z M72.3682088,18.197107 C69.2855441,16.3580804 66.3213277,22.8243351 66.3213277,28.4302841 C66.3213277,34.0362331 71.1232865,36.972975 73.4057598,36.2017703 C73.1094655,33.8584945 72.5460548,22.3497476 72.3682088,18.197107 Z" id="path-1"></path>
    </defs>
    <g id="Style-1---Transactions-List" stroke="none" stroke-width="1" fill="none" fill-rule="evenodd" transform="translate(-346.000000, -32.000000)">
        <g id="Header">
            <g id="Logo" transform="translate(344.000000, 32.000000)">
                <mask id="mask-2" fill="white">
                    <use xlink:href="#path-1"></use>
                </mask>
                <g id="Mask"></g>
                <g id="--Fill" mask="url(#mask-2)" fill="#FFFFFF">
                    <rect id="Rectangle-6" x="0" y="0" width="80" height="40"></rect>
                </g>
            </g>
        </g>
    </g>
</svg>