<?xml version="1.0" encoding="UTF-8"?>
<svg width="20px" height="20px" viewBox="0 0 20 20" version="1.1" xmlns="http://www.w3.org/2000/svg" xmlns:xlink="http://www.w3.org/1999/xlink">
    <!-- Generator: Sketch 48.2 (47327) - http://www.bohemiancoding.com/sketch -->
    <title>Icon/Settings</title>
    <desc>Created with Sketch.</desc>
    <defs>
        <path d="M12,15.3333333 C10.1616667,15.3333333 8.66666667,13.8375 8.66666667,12 C8.66666667,10.1625 10.1616667,8.66666667 12,8.66666667 C13.8383333,8.66666667 15.3333333,10.1625 15.3333333,12 C15.3333333,13.8375 13.8383333,15.3333333 12,15.3333333 M21.5833333,10.3333333 L19.2041667,10.3333333 C19.0375,9.675 18.8258333,8.94416667 18.5558333,8.39 L20.2491667,6.69666667 C20.4125,6.53416667 20.4125,6.27083333 20.2491667,6.1075 L17.8916667,3.75166667 C17.7291667,3.5875 17.4658333,3.5875 17.3025,3.75166667 L15.6091667,5.44416667 C15.0541667,5.17416667 14.3241667,4.9625 13.6666667,4.79666667 L13.6666667,2.41666667 C13.6666667,2.18666667 13.48,2 13.25,2 L10.75,2 C10.52,2 10.3333333,2.18666667 10.3333333,2.41666667 L10.3333333,4.79666667 C9.675,4.9625 8.94416667,5.17416667 8.39083333,5.44416667 L6.69666667,3.75166667 C6.53333333,3.5875 6.27,3.5875 6.1075,3.75166667 L3.75,6.1075 C3.5875,6.27 3.5875,6.53333333 3.75,6.69666667 L5.44416667,8.39083333 C5.17583333,8.94333333 4.9625,9.67416667 4.79583333,10.3333333 L2.41666667,10.3333333 C2.18666667,10.3333333 2,10.52 2,10.75 L2,13.25 C2,13.48 2.18666667,13.6666667 2.41666667,13.6666667 L4.79583333,13.6666667 C4.9625,14.3258333 5.17583333,15.0566667 5.44416667,15.61 L3.75,17.3041667 C3.58666667,17.4666667 3.58666667,17.73 3.75,17.8925 L6.1075,20.2491667 C6.26416667,20.4058333 6.54083333,20.4058333 6.69666667,20.2491667 L8.39083333,18.5558333 C8.9425,18.825 9.67416667,19.0366667 10.3333333,19.205 L10.3333333,21.5833333 C10.3333333,21.8133333 10.52,22 10.75,22 L13.25,22 C13.48,22 13.6666667,21.8133333 13.6666667,21.5833333 L13.6666667,19.205 C14.325,19.0366667 15.0566667,18.825 15.6091667,18.5558333 L17.3033333,20.2491667 C17.4666667,20.4125 17.73,20.4125 17.8925,20.2491667 L20.2491667,17.8925 C20.4125,17.73 20.4125,17.4666667 20.2491667,17.3041667 L18.5558333,15.61 C18.825,15.0566667 19.0375,14.3258333 19.2041667,13.6666667 L21.5833333,13.6666667 C21.8133333,13.6666667 22,13.48 22,13.25 L22,10.75 C22,10.52 21.8133333,10.3333333 21.5833333,10.3333333" id="path-1"></path>
    </defs>
    <g id="Theme-2---Settings" stroke="none" stroke-width="1" fill="none" fill-rule="evenodd" transform="translate(-714.000000, -42.000000)">
        <g id="Group-2" transform="translate(-320.000000, 0.000000)">
            <g id="Header" transform="translate(320.000000, 0.000000)">
                <g id="Icon/Settings" transform="translate(712.000000, 40.000000)">
                    <mask id="mask-2" fill="white">
                        <use xlink:href="#path-1"></use>
                    </mask>
                    <g id="Mask"></g>
                    <g id="--Fill" mask="url(#mask-2)" fill="#FFFFFF">
                        <rect id="Rectangle-6" x="0" y="0" width="24" height="24"></rect>
                    </g>
                </g>
            </g>
        </g>
    </g>
</svg>
